%
M48
M72
T01C0.01181
T02C0.01378
T03C0.03543
T04C0.04000
T05C0.05906
%
T01
X55050Y82510
X71194Y81655
X77550Y100010
X80259Y102510
X81300Y107300
X72550Y122510
X68800Y127510
X68800Y133910
X75050Y133760
X74841Y138969
X80050Y138760
X80050Y147510
X72550Y147510
X72550Y151469
X66300Y162510
X64994Y166316
X64009Y170010
X56300Y177510
X51300Y180010
X53800Y185010
X60050Y185010
X60050Y191260
X52550Y191260
X45050Y182510
X45050Y176260
X36300Y183760
X33800Y173760
X42550Y165010
X38765Y158714
X43800Y150010
X41129Y146430
X50050Y152510
X52550Y150010
X52550Y146260
X52550Y142510
X57550Y137510
X61300Y141260
X61300Y146260
X50050Y135010
X45050Y123760
X46300Y120010
X48800Y112510
X52920Y110890
X56300Y113760
X55050Y118760
X53800Y122719
X61091Y123345
X64009Y120092
X66509Y111260
X76300Y125010
X87550Y141260
X95050Y146260
X93800Y152510
X98800Y163969
X90050Y168760
X84082Y172228
X88800Y180010
X83800Y182510
X82550Y187510
X78800Y185010
X97550Y176260
X101300Y181260
X111300Y172510
X117550Y176260
X126300Y178760
X126300Y173760
X126300Y168760
X128800Y165010
X122550Y157510
X118800Y163760
X115050Y152619
X118263Y151050
X113650Y146560
X108800Y133760
X111708Y115439
X110050Y106260
X111300Y90010
X96300Y105010
X103800Y70010
X100314Y66575
X125050Y62510
X141300Y82510
X135050Y93760
X131300Y103760
X127550Y93760
X131300Y126260
X122494Y127300
X127550Y137510
X137550Y155010
X142550Y151260
X145050Y160010
X152550Y170010
X152550Y198760
X146300Y210010
X161300Y226260
X153800Y261260
X151300Y266260
X145050Y261260
X141300Y263760
X117550Y222510
X113800Y220010
X100050Y236260
X97550Y227510
X95050Y217510
X80050Y237510
X76398Y239911
X71300Y246260
X66202Y237608
X76300Y215010
X47550Y230010
X20050Y171260
X15050Y161260
X10050Y163760
X25050Y156260
X26300Y161260
X31300Y156260
X30050Y145010
X32550Y133760
X26300Y133760
X19009Y128760
X18800Y123760
X25050Y112510
X37550Y115010
X37956Y123769
X23800Y88760
X6991Y121260
X8800Y125010
X50420Y164129
X118800Y192510
X121300Y188760
X180050Y182510
X212550Y236260
X201300Y261260
X193800Y254800
X197550Y300010
X196300Y307510
X195050Y313760
X208800Y321260
X208800Y327510
X196300Y120010
X187550Y112510
X178702Y96358
X181300Y90010
X168800Y93760
X162550Y90010
X166300Y82510
X153800Y91260
X153800Y73760
X178800Y52510
X188364Y56260
X201300Y38760
X206300Y38760
X213800Y38760
X220050Y76260
X212550Y83760
X207550Y83760
X203800Y76750
X200050Y100010
X208800Y108760
X212550Y98760
X220050Y102510
X107550Y17510
X106300Y21260
X95050Y22510
X80050Y22510
X58800Y22510
X42958Y301369
X72550Y316260
T02
X158800Y107510
T03
X241300Y212854
X241300Y224665
T04
X231300Y243760
X231300Y253760
X231300Y263760
X231300Y273760
X231300Y283760
X231300Y293760
X231300Y303760
X231300Y313760
X221300Y313760
X221300Y303760
X221300Y293760
X221300Y283760
X221300Y273760
X221300Y263760
X221300Y253760
X221300Y243760
X205300Y216260
X205300Y201260
X205300Y280260
X205300Y295260
X47300Y295260
X47300Y280260
X31300Y283760
X31300Y273760
X31300Y263760
X31300Y253760
X31300Y243760
X21300Y243760
X21300Y253760
X21300Y263760
X21300Y273760
X21300Y283760
X21300Y293760
X21300Y303760
X21300Y313760
X31300Y313760
X31300Y303760
X31300Y293760
X47300Y216260
X47300Y201260
T05
X59371Y325472
X193229Y225079
M30
